<?xml version="1.0" encoding="utf-8"?>
<!-- Generator: Adobe Illustrator 25.2.3, SVG Export Plug-In . SVG Version: 6.00 Build 0)  -->
<svg version="1.1" id="レイヤー_1" xmlns="http://www.w3.org/2000/svg" xmlns:xlink="http://www.w3.org/1999/xlink" x="0px"
	 y="0px" viewBox="0 0 14 14" style="enable-background:new 0 0 14 14;" xml:space="preserve">
<style type="text/css">
	.st0{fill:none;stroke:#333333;stroke-linecap:round;stroke-linejoin:round;}
	.st1{fill:#333333;}
</style>
<g id="レイヤー_2_1_">
	<g id="txt">
		<path class="st0" d="M7.3,3.2c2,0,3.6,1.6,3.6,3.6c0,0,0,0,0,0"/>
		<path class="st0" d="M7.3,1.4c2.9,0,5.3,2.4,5.3,5.3c0,0,0,0,0,0"/>
		<path class="st1" d="M1.6,1.5L1.6,1.5c-1.7,1.7-0.7,5.6,2.3,8.6s6.9,4,8.6,2.3c0.4-0.5,0.6-1.1,0.8-1.7c0-0.2-0.1-0.4-0.2-0.5
			L9.8,8.9c-0.2-0.1-0.4,0-0.6,0.1L8.3,10c-0.2,0.2-0.4,0.2-0.6,0.1H7.7l0,0c-0.8-0.4-1.5-1-2.2-1.7C4.9,7.8,4.3,7.1,3.9,6.3l0,0
			l0,0C3.8,6.1,3.9,5.9,4,5.7l0.9-1C5.1,4.6,5.1,4.4,5,4.1L3.8,1C3.7,0.8,3.5,0.7,3.3,0.7C2.7,0.9,2.1,1.1,1.6,1.5z"/>
	</g>
</g>
</svg>
